<svg xmlns="http://www.w3.org/2000/svg" width="15.062" height="16" viewBox="0 0 15.062 16"><defs><style>.a{fill-rule:evenodd;}</style></defs><g transform="translate(-21.918 -20.17)"><g transform="translate(21.918 20.17)"><g transform="translate(0 0)"><path class="a" d="M13.946,33.827c-.037-.01-.074-.019-.11-.03a.818.818,0,0,1-.527-.788c0-.016,0-.032,0-.048V21.675a.827.827,0,0,1,.426-.791.728.728,0,0,1,1.009.753c0,.781,0,1.563,0,2.344v8.176h8.069v-.085q0-5.192,0-10.384a.879.879,0,0,1,.3-.716.605.605,0,0,1,.739-.072.827.827,0,0,1,.4.732c0,.016,0,.032,0,.048q0,5.64,0,11.28a.849.849,0,0,1-.443.8,1.65,1.65,0,0,1-.187.065Z" transform="translate(-11.248 -17.827)"/><path class="a" d="M21.48,7.735c-.009.047-.016.094-.027.14a.767.767,0,0,1-.687.621H7.194a.762.762,0,0,1-.749-.634c-.014-.062-.018-.126-.027-.189V7.651c.005-.041.009-.083.016-.124a.771.771,0,0,1,.748-.694h4.429V6.759q0-.778,0-1.557a.509.509,0,0,1,.368-.516c.031-.008.063-.012.1-.017h3.76a.167.167,0,0,0,.026.008.5.5,0,0,1,.428.546q0,.766,0,1.532v.077h4.437a.763.763,0,0,1,.729.624c.011.048.018.1.027.146S21.48,7.69,21.48,7.735ZM12.547,5.718V6.829h2.807V5.718Z" transform="translate(-6.418 -4.67)"/><path class="a" d="M42.064,28.547q0,2.043,0,4.086a.521.521,0,1,1-1.041.023c0-.01,0-.02,0-.03q0-4.077,0-8.154a.521.521,0,0,1,1.04-.047c0,.022,0,.044,0,.066Z" transform="translate(-31.814 -19.404)"/><path class="a" d="M25.447,28.394q0,2.031,0,4.062a.52.52,0,1,1-1.039.053q0-.021,0-.042,0-4.071,0-8.141a.518.518,0,0,1,.213-.447.519.519,0,0,1,.826.394c0,.03,0,.06,0,.09Q25.448,26.378,25.447,28.394Z" transform="translate(-19.62 -19.286)"/><path class="a" d="M33.807,28.472q0,2.043,0,4.086a.519.519,0,0,1-1.038.041c0-.018,0-.036,0-.054V24.4a.519.519,0,0,1,1.037-.059c0,.026,0,.052,0,.078Z" transform="translate(-25.756 -19.347)"/></g></g></g></svg>